<svg width="1280" height="780" viewBox="0 0 1280 780" fill="none" xmlns="http://www.w3.org/2000/svg">
  <defs>
    <linearGradient id="bg" x1="0" y1="0" x2="1280" y2="780" gradientUnits="userSpaceOnUse">
      <stop stop-color="#E2E8F0"/>
      <stop offset="1" stop-color="#CBD5E1"/>
    </linearGradient>
    <linearGradient id="paper" x1="220" y1="24" x2="1060" y2="752" gradientUnits="userSpaceOnUse">
      <stop stop-color="#FFFFFF"/>
      <stop offset="1" stop-color="#F8FAFC"/>
    </linearGradient>
  </defs>

  <rect width="1280" height="780" fill="url(#bg)"/>
  <rect x="214" y="20" width="852" height="740" rx="18" fill="url(#paper)" stroke="#94A3B8" stroke-width="2"/>

  <rect x="258" y="74" width="764" height="132" rx="14" fill="#F1F5F9" stroke="#CBD5E1"/>
  <rect x="286" y="106" width="582" height="24" rx="12" fill="#334155"/>
  <rect x="286" y="144" width="386" height="14" rx="7" fill="#64748B"/>
  <rect x="286" y="166" width="512" height="12" rx="6" fill="#94A3B8"/>

  <rect x="258" y="236" width="764" height="14" rx="7" fill="#475569"/>
  <rect x="258" y="260" width="736" height="14" rx="7" fill="#94A3B8"/>
  <rect x="258" y="284" width="764" height="14" rx="7" fill="#CBD5E1"/>
  <rect x="258" y="308" width="618" height="14" rx="7" fill="#CBD5E1"/>

  <rect x="258" y="346" width="764" height="220" rx="14" fill="#DBEAFE"/>
  <rect x="258" y="590" width="764" height="14" rx="7" fill="#475569"/>
  <rect x="258" y="614" width="730" height="14" rx="7" fill="#94A3B8"/>
  <rect x="258" y="638" width="764" height="14" rx="7" fill="#CBD5E1"/>
  <rect x="258" y="662" width="514" height="14" rx="7" fill="#CBD5E1"/>

  <text x="64" y="64" fill="#0F172A" font-family="Segoe UI, Arial, sans-serif" font-size="28" font-weight="700">Generated PDF preview</text>
  <text x="64" y="102" fill="#334155" font-family="Segoe UI, Arial, sans-serif" font-size="22">Structured metadata, text blocks, and inline images</text>
</svg>
